Jump_normalized_Motion_pl06
version=1
nRows=20
nColumns=43
inDegrees=yes
endheader
time		pelvis_tilt		pelvis_list		pelvis_rotation		pelvis_tx		pelvis_ty		pelvis_tz		hip_flexion_r		hip_adduction_r		hip_rotation_r		knee_angle_r		ankle_angle_r		subtalar_angle_r		mtp_angle_r		hip_flexion_l		hip_adduction_l		hip_rotation_l		knee_angle_l		ankle_angle_l		subtalar_angle_l		mtp_angle_l		lumbar_extension		lumbar_bending		lumbar_rotation		neck_flexion		neck_lateral_bending		neck_rotation		arm_flex_r		arm_add_r		arm_rot_r		elbow_flex_r		pro_sup_r		wrist_flex_r		wrist_dev_r		hand_finger_flex_r		arm_flex_l		arm_add_l		arm_rot_l		elbow_flex_l		pro_sup_l		wrist_flex_l		wrist_dev_l		hand_finger_flex_l		
0.397500		3.913015		-29.599379		88.798653		0.015234		1.663190		1.807202		93.314548		-11.075337		5.689951		-143.797199		44.800770		7.396215		-13.488372		93.709372		-12.373574		8.322434		-144.911782		47.051107		-3.340913		-23.548014		-31.529071		-0.528192		3.022813		41.819758		3.025772		5.159181		100.179940		-25.754487		31.944508		78.090274		54.098198		-24.803011		-20.406805		56.780835		109.791163		-24.259125		48.093816		75.341549		63.012011		-50.014402		10.115968		73.487794		
0.400000		3.923156		-29.999528		88.797027		0.015259		1.664154		1.804315		93.196957		-11.054137		5.623906		-143.578214		44.754322		7.416397		-13.492189		93.538520		-12.371176		8.271974		-144.679841		47.091038		-3.349123		-23.541809		-30.989825		-0.533393		3.029608		41.725420		3.172966		5.117882		101.044324		-25.434927		32.178774		77.734527		54.118827		-24.855873		-20.327871		56.788334		110.495484		-23.848487		48.060604		75.127443		62.984295		-50.040399		10.076947		73.465754		
0.402500		3.942988		-30.344336		88.787773		0.015273		1.665198		1.801384		93.033933		-11.013586		5.590326		-143.363338		44.665660		7.440279		-13.497216		93.301813		-12.366419		8.245124		-144.447221		47.110275		-3.376878		-23.534898		-30.509757		-0.520740		3.056105		41.529150		3.234896		5.118110		102.009208		-25.177487		32.575760		77.336060		54.147746		-24.896338		-20.229231		56.803038		111.307269		-23.522308		48.227231		74.879900		62.954109		-49.998187		10.059416		73.486764		
0.405000		3.961460		-30.646062		88.774867		0.015270		1.666370		1.798340		92.799367		-10.967004		5.537436		-143.125836		44.560684		7.471855		-13.499840		93.005513		-12.360508		8.204664		-144.212480		47.100503		-3.412569		-23.526517		-30.080868		-0.502243		3.072555		41.346680		3.255317		5.136485		102.960011		-24.909523		32.971193		76.936025		54.156684		-24.949271		-20.148672		56.804243		112.127982		-23.248594		48.421349		74.659101		62.906956		-49.924175		10.034143		73.541263		
0.407500		3.981940		-30.915958		88.759027		0.015261		1.667651		1.795202		92.516141		-10.920204		5.479771		-142.876726		44.450432		7.502362		-13.498319		92.664147		-12.354767		8.154944		-143.973178		47.075239		-3.462200		-23.513035		-29.689046		-0.478759		3.077338		41.174963		3.264648		5.165859		103.904611		-24.623643		33.371561		76.510678		54.160620		-25.022321		-20.081137		56.784978		112.940949		-23.010683		48.621630		74.440466		62.844873		-49.830783		9.999793		73.621532		
0.410000		4.005583		-31.154350		88.746349		0.015228		1.669061		1.791963		92.196707		-10.875824		5.430168		-142.625521		44.332131		7.528086		-13.491588		92.268241		-12.354176		8.099378		-143.711996		47.029253		-3.528983		-23.491499		-29.332816		-0.441548		3.077329		40.987721		3.259621		5.210957		104.848215		-24.331492		33.799360		76.061052		54.170394		-25.121003		-20.030379		56.743342		113.748001		-22.813939		48.846516		74.225504		62.768820		-49.715466		9.955644		73.732368		
0.412500		4.025056		-31.373881		88.735132		0.015193		1.670533		1.788620		91.839440		-10.830562		5.376754		-142.362477		44.206172		7.551839		-13.479827		91.839879		-12.347367		8.029604		-143.443619		46.962630		-3.607397		-23.459900		-28.991022		-0.403867		3.066715		40.798538		3.239380		5.267244		105.760417		-24.032018		34.220558		75.609637		54.188099		-25.248844		-20.003409		56.676456		114.528924		-22.644026		49.067858		74.028961		62.684556		-49.589617		9.900165		73.864710		
0.415000		4.066363		-31.203304		88.750581		0.014962		1.673005		1.784803		90.957601		-10.819776		5.293632		-142.027170		44.063723		7.547790		-13.346740		90.920480		-12.300836		7.916358		-143.115352		46.777992		-3.889960		-23.232576		-29.177555		-0.251441		2.924987		40.818130		2.922692		5.548958		106.925294		-23.533014		34.974304		75.034861		53.945007		-25.796757		-20.479555		56.478266		115.493209		-22.904344		49.488440		74.063271		62.138771		-49.351778		9.472940		74.510429		
0.417500		4.075419		-31.556749		88.741770		0.014939		1.674192		1.781420		90.747823		-10.791123		5.232181		-141.766092		43.956175		7.580924		-13.336403		90.643384		-12.295610		7.835075		-142.853994		46.733478		-3.893865		-23.194700		-28.637648		-0.244519		2.929269		40.584671		3.029361		5.518437		107.639140		-23.263954		35.219087		74.613397		53.981344		-25.874935		-20.397299		56.422457		116.089785		-22.598861		49.543707		73.813880		62.118250		-49.360364		9.447883		74.521359		
0.420000		4.078306		-31.842264		88.727649		0.014927		1.675540		1.777913		90.465817		-10.737256		5.211310		-141.526944		43.783480		7.603892		-13.322685		90.281422		-12.287466		7.755080		-142.565055		46.631231		-3.952196		-23.134638		-28.162986		-0.225545		2.940629		40.237072		3.049339		5.540447		108.433102		-23.041722		35.654149		74.143581		54.077617		-26.000855		-20.318675		56.332669		116.769091		-22.397878		49.813585		73.551481		62.115084		-49.280346		9.438752		74.591858		
0.422500		4.077341		-32.100144		88.706226		0.014881		1.676981		1.774287		90.147258		-10.705601		5.156965		-141.235095		43.607077		7.622975		-13.308221		89.860585		-12.289637		7.637862		-142.291937		46.501633		-4.031303		-23.065372		-27.726810		-0.208927		2.923721		39.970722		3.045087		5.573573		109.180111		-22.788113		36.040957		73.685945		54.167259		-26.172808		-20.271912		56.215774		117.431746		-22.241592		50.046622		73.332683		62.112177		-49.176492		9.421065		74.676700		
0.425000		4.066559		-32.317631		88.687664		0.014829		1.678499		1.770534		89.764783		-10.666838		5.130245		-140.961278		43.409097		7.627786		-13.292027		89.388787		-12.277661		7.516432		-141.982742		46.349289		-4.141910		-22.976626		-27.326598		-0.185415		2.895184		39.668218		3.024969		5.622047		109.923486		-22.521155		36.467032		73.216147		54.266687		-26.389414		-20.244212		56.074286		118.081645		-22.139327		50.317908		73.138644		62.116172		-49.042852		9.403932		74.778374		
0.427500		3.992334		-32.226477		88.672732		0.014617		1.680896		1.766367		88.997335		-10.678004		5.172204		-140.645349		43.192873		7.569679		-13.137956		88.507896		-12.196549		7.253833		-141.591784		46.050431		-4.546430		-22.466366		-27.365017		-0.128148		2.683529		39.633965		2.759518		5.882292		110.833607		-22.029261		37.110247		72.671978		54.247967		-27.155862		-20.670860		55.666337		118.880173		-22.427074		50.707252		73.192260		61.937806		-48.759034		9.176087		75.182750		
0.430000		3.996927		-32.531822		88.678141		0.014583		1.682238		1.762487		88.703616		-10.673421		5.115230		-140.379621		43.001736		7.616367		-13.133191		88.130881		-12.204091		7.135391		-141.281060		45.931773		-4.543929		-22.385889		-26.815744		-0.113075		2.681674		39.257808		2.835265		5.848348		111.394135		-21.819879		37.403137		72.224900		54.281628		-27.244639		-20.571453		55.609297		119.357894		-22.204744		50.861594		72.948192		61.959481		-48.741023		9.194462		75.172811		
0.432500		3.988103		-32.785028		88.677804		0.014515		1.683714		1.758479		88.352263		-10.665428		5.083367		-140.096494		42.751354		7.640537		-13.135451		87.685148		-12.189907		7.012131		-140.963372		45.768689		-4.597891		-22.293337		-26.325659		-0.092652		2.664909		38.853365		2.829544		5.856163		111.977632		-21.619621		37.775469		71.776746		54.350330		-27.380314		-20.487941		55.533612		119.886720		-22.072012		51.139439		72.728382		62.026900		-48.659907		9.217052		75.179128		
0.435000		3.971085		-32.996460		88.686369		0.014449		1.685302		1.754349		87.947427		-10.665923		5.062115		-139.818874		42.478076		7.647184		-13.141964		87.185343		-12.168874		6.867672		-140.619048		45.581616		-4.691581		-22.188225		-25.885976		-0.066799		2.622312		38.479945		2.804142		5.877452		112.552392		-21.385153		38.152878		71.312431		54.421096		-27.564648		-20.422735		55.442090		120.411413		-21.998033		51.436217		72.541432		62.121451		-48.549118		9.229849		75.187615		
0.437500		3.946506		-33.173513		88.700041		0.014355		1.686973		1.750082		87.491826		-10.685499		5.046825		-139.533505		42.185162		7.649338		-13.154087		86.639572		-12.135306		6.708050		-140.260642		45.378008		-4.805966		-22.074737		-25.480299		-0.038397		2.558855		38.105450		2.755712		5.912482		113.093738		-21.134059		38.521408		70.852969		54.487127		-27.776095		-20.370337		55.348073		120.913640		-21.965539		51.742210		72.384909		62.240970		-48.420519		9.236390		75.191139		
0.440000		3.915403		-33.322369		88.720519		0.014222		1.688715		1.745708		86.998973		-10.718378		5.041095		-139.246775		41.872674		7.656738		-13.172427		86.059595		-12.088084		6.541977		-139.887408		45.159871		-4.930184		-21.955198		-25.102457		-0.004916		2.478622		37.726062		2.695421		5.953586		113.609559		-20.871543		38.881195		70.386714		54.547113		-28.001541		-20.318398		55.258490		121.395084		-21.961570		52.054372		72.240407		62.387881		-48.280326		9.238676		75.185506		
0.442500		3.882506		-33.451988		88.746352		0.014078		1.690488		1.741212		86.478434		-10.769941		5.034184		-138.950359		41.544219		7.680239		-13.197235		85.451997		-12.031744		6.372948		-139.509855		44.927693		-5.047999		-21.838100		-24.735447		0.029829		2.393350		37.338248		2.627823		5.995864		114.084408		-20.609798		39.228462		69.932224		54.600532		-28.219454		-20.257544		55.181868		121.844157		-21.974700		52.371162		72.106793		62.560281		-48.133455		9.238898		75.172015		
0.445000		3.853575		-33.560853		88.781841		0.013909		1.692283		1.736634		85.935322		-10.824325		5.038380		-138.659317		41.197878		7.722367		-13.227617		84.820858		-11.964918		6.212071		-139.118498		44.679136		-5.157791		-21.725127		-24.386627		0.070610		2.300826		36.933777		2.554778		6.037943		114.534074		-20.354827		39.560215		69.481065		54.648634		-28.426584		-20.179699		55.118284		122.272571		-21.999611		52.693273		71.976452		62.761733		-47.978673		9.236317		75.154089		
